<?xml version="1.0" standalone="no"?>
<!DOCTYPE svg PUBLIC "-//W3C//DTD SVG 20010904//EN"
 "http://www.w3.org/TR/2001/REC-SVG-20010904/DTD/svg10.dtd">
<svg version="1.0" xmlns="http://www.w3.org/2000/svg"
 width="512.000000pt" height="512.000000pt" viewBox="0 0 512.000000 512.000000"
 preserveAspectRatio="xMidYMid meet">
<metadata>
Created by potrace 1.11, written by Peter Selinger 2001-2013
</metadata>
<g transform="translate(0.000000,512.000000) scale(0.100000,-0.100000)"
fill="#000000" stroke="none">
<path d="M2421 5055 c-62 -36 -115 -65 -116 -65 -2 0 -49 -27 -105 -60 -56
-33 -103 -60 -104 -60 -1 0 -74 -41 -162 -91 -87 -50 -184 -105 -214 -122 -30
-17 -88 -50 -128 -74 -41 -24 -75 -43 -76 -43 -2 0 -69 -38 -150 -85 -81 -47
-149 -85 -151 -85 -2 0 -36 -19 -77 -43 -40 -24 -93 -55 -118 -69 -25 -14
-193 -110 -375 -213 -181 -103 -352 -201 -380 -216 -27 -16 -91 -52 -141 -80
-55 -31 -97 -62 -107 -79 -25 -42 -25 -458 0 -500 22 -38 52 -50 123 -50 l60
0 1 -67 c1 -84 4 -105 28 -157 26 -58 65 -101 122 -133 l49 -28 0 -876 0 -877
-31 -12 c-17 -7 -52 -34 -78 -60 -63 -60 -91 -134 -91 -235 l0 -75 -60 0 c-71
0 -101 -12 -123 -50 -15 -24 -17 -59 -16 -247 1 -120 4 -229 8 -243 4 -15 21
-32 41 -42 33 -17 104 -18 1058 -18 1140 0 1068 -4 1094 67 l12 33 121 0 120
0 16 -39 c14 -32 24 -42 57 -52 56 -16 96 0 119 52 l18 38 120 1 121 0 12 -33
c26 -71 -46 -67 1096 -67 716 0 1032 3 1049 11 52 24 57 48 57 288 0 137 -4
229 -11 244 -17 38 -60 57 -128 57 l-61 0 0 58 c-1 92 -10 134 -41 189 -32 56
-74 96 -126 121 l-33 16 0 875 0 876 46 24 c56 30 109 93 135 160 10 28 19 53
19 56 0 3 0 37 0 75 l0 70 60 0 c71 0 101 12 123 50 15 24 17 61 17 250 0 148
-4 228 -12 243 -14 28 -35 43 -125 93 -21 12 -258 147 -528 301 -269 154 -512
292 -540 307 -27 16 -178 101 -335 191 -157 89 -312 177 -345 195 -33 18 -71
40 -85 50 -14 9 -38 24 -55 32 -16 8 -106 59 -200 113 -247 142 -311 175 -337
175 -13 0 -74 -29 -137 -65z"/>
</g>
</svg>
